# xmcd
#
# Track frame offsets: 
#        150
#        24370
#        35017
#        55945
#        73850
#        90260
#        121457
#        136207
#        158575
#        181627
#        200580
#        216925
#        240355
#        258257
#
# Disc length: 3862 seconds
#
# Revision: 2
# Processed by: cddbd v1.5.2PL0 Copyright (c) Steve Scherf et al.
# Submitted via: ExactAudioCopyFreeDBPlugin 1.0
#
DISCID=b70f140e
DTITLE=Various Artist - Blues De-Luxe CD2 Electric
DYEAR=2000
DGENRE=Blues
TTITLE0=Muddy Waters - Mannish Boy
TTITLE1=Fleetwood Mac - Stop Messin around
TTITLE2=Stevie Ray Vaughan - The sky is crying
TTITLE3=Boz Scaggs - Runnin blue
TTITLE4=Taj Mahal - Going up to the country
TTITLE5=Mike Bloomfield and Al Kooper - Alberts shuffle
TTITLE6=Chicken Shack - Id rather go blind
TTITLE7=Willie Dixon - Spoonful
TTITLE8=Johnny Winter - Highway 61 revisited
TTITLE9=Janis Joplin - One good man
TTITLE10=Shuggie Otis and Al Kooper - One room country shack
TTITLE11=Omar and The Howlers - Lee anne
TTITLE12=Jimmie Vaughan - Boom-bapa-boom
TTITLE13=The Allman Brothers Band - Get on with your life
EXTD=
EXTT0=
EXTT1=
EXTT2=
EXTT3=
EXTT4=
EXTT5=
EXTT6=
EXTT7=
EXTT8=
EXTT9=
EXTT10=
EXTT11=
EXTT12=
EXTT13=
PLAYORDER=
